<svg xmlns="http://www.w3.org/2000/svg" viewBox="0 0 400 560" role="img" aria-label="Custom labels">
<defs><filter id="cs" x="-20%" y="-20%" width="140%" height="140%"><feDropShadow dx="0" dy="6" stdDeviation="8" flood-color="#0e2a47" flood-opacity="0.16"/></filter></defs>
<rect width="400" height="560" fill="#fff"/>
<rect x="16" y="20" width="368" height="520" rx="16" fill="#f4f7fb"/>
<text x="200" y="58" text-anchor="middle" font-family="Arial,Helvetica,sans-serif" font-size="13" font-weight="800" letter-spacing="1.5" fill="#2196f3">CUSTOM LABELS</text>
<text x="200" y="80" text-anchor="middle" font-family="Arial,Helvetica,sans-serif" font-size="12" fill="#6b7f96">Any shape, size, colour or material</text>
<!-- circle label -->
<g filter="url(#cs)"><circle cx="120" cy="170" r="62" fill="#2196f3"/><circle cx="120" cy="170" r="62" fill="none" stroke="#fff" stroke-width="3" stroke-dasharray="3 5"/><text x="120" y="164" text-anchor="middle" font-family="Arial,Helvetica,sans-serif" font-size="13" font-weight="800" fill="#fff">YOUR</text><text x="120" y="184" text-anchor="middle" font-family="Arial,Helvetica,sans-serif" font-size="13" font-weight="800" fill="#fff">BRAND</text></g>
<!-- rounded square label coral -->
<g filter="url(#cs)"><rect x="228" y="112" width="118" height="118" rx="18" fill="#e07a56"/><rect x="242" y="126" width="90" height="10" rx="5" fill="#fff" opacity=".85"/><rect x="242" y="146" width="70" height="8" rx="4" fill="#fff" opacity=".6"/><g fill="#fff"><rect x="242" y="176" width="4" height="34"/><rect x="250" y="176" width="2" height="34"/><rect x="256" y="176" width="6" height="34"/><rect x="266" y="176" width="2" height="34"/><rect x="272" y="176" width="4" height="34"/><rect x="280" y="176" width="7" height="34"/><rect x="291" y="176" width="2" height="34"/><rect x="297" y="176" width="5" height="34"/><rect x="306" y="176" width="3" height="34"/><rect x="312" y="176" width="6" height="34"/></g></g>
<!-- shield / badge navy -->
<g filter="url(#cs)"><path d="M120 268 l70 22 v40 c0 44 -34 64 -70 78 c-36 -14 -70 -34 -70 -78 v-40 z" fill="#0e2a47"/><path d="M120 300 l24 18 -9 28 -30 0 -9 -28 z" fill="none" stroke="#8fc7ff" stroke-width="2.4"/><text x="120" y="392" text-anchor="middle" font-family="Arial,Helvetica,sans-serif" font-size="10.5" font-weight="700" fill="#8fc7ff">PREMIUM</text></g>
<!-- oval label -->
<g filter="url(#cs)"><ellipse cx="290" cy="316" rx="70" ry="44" fill="#fff" stroke="#dbe4ee"/><text x="290" y="312" text-anchor="middle" font-family="Arial,Helvetica,sans-serif" font-size="12" font-weight="800" fill="#0e2a47">Est. 2015</text><text x="290" y="330" text-anchor="middle" font-family="Arial,Helvetica,sans-serif" font-size="10" fill="#9fb0c3">die-cut oval</text></g>
<!-- star / badge -->
<g filter="url(#cs)"><path d="M290 384 l11 26 28 2 -21 18 7 27 -25 -15 -25 15 7 -27 -21 -18 28 -2 z" fill="#2196f3"/></g>
<!-- material chips -->
<g font-family="Arial,Helvetica,sans-serif" font-size="11" font-weight="700">
<rect x="40" y="452" width="92" height="30" rx="15" fill="#fff" stroke="#dbe4ee"/><text x="86" y="472" text-anchor="middle" fill="#0e2a47">Paper</text>
<rect x="144" y="452" width="112" height="30" rx="15" fill="#fff" stroke="#dbe4ee"/><text x="200" y="472" text-anchor="middle" fill="#0e2a47">Synthetic</text>
<rect x="268" y="452" width="92" height="30" rx="15" fill="#fff" stroke="#dbe4ee"/><text x="314" y="472" text-anchor="middle" fill="#0e2a47">Foil</text>
</g>
<text x="200" y="516" text-anchor="middle" font-family="Arial,Helvetica,sans-serif" font-size="10.5" fill="#6b7f96">Custom labels from <tspan font-weight="800" fill="#2196f3">pinnpoint</tspan></text>
</svg>